<svg xmlns="http://www.w3.org/2000/svg" viewBox="0 0 400 250"><rect width="400" height="250" fill="#F8F4E8"/><rect x="10" y="10" width="380" height="230" fill="none" stroke="#3E2723" stroke-width="1"/><rect x="15" y="15" width="370" height="220" fill="none" stroke="#3E2723" stroke-width="0.5"/><text x="200" y="40" font-family="Georgia, serif" font-size="16" font-weight="bold" text-anchor="middle" fill="#3E2723">TABULA III. — LATEX SCRIPTURA</text><!-- Scroll --><path d="M 80 80 Q 80 60 100 60 L 300 60 Q 320 60 320 80 L 320 180 Q 320 200 300 200 L 100 200 Q 80 200 80 180 Z" fill="none" stroke="#3E2723" stroke-width="1.2"/><path d="M 80 180 Q 100 180 100 200" fill="none" stroke="#3E2723" stroke-width="1.2"/><!-- Text inside --><text x="100" y="100" font-family="'Courier New', monospace" font-size="11" fill="#3E2723">\includegraphics[Label]{URL}</text><line x1="100" y1="120" x2="300" y2="120" stroke="#3E2723" stroke-width="0.3" stroke-dasharray="2,2"/><text x="100" y="145" font-family="Georgia, serif" font-size="10" fill="#3E2723">[Label] = Alt text / Nhãn mô tả</text><text x="100" y="165" font-family="Georgia, serif" font-size="10" fill="#3E2723">{URL} = Path to image / Đường dẫn</text><!-- Ink well and quill --><path d="M 330 200 L 360 200 L 360 220 L 330 220 Z" fill="none" stroke="#3E2723" stroke-width="1"/><line x1="345" y1="200" x2="380" y2="120" stroke="#3E2723" stroke-width="1"/><path d="M 380 120 Q 370 140 375 160" fill="none" stroke="#3E2723" stroke-width="0.5"/></svg>